<svg width="24" height="24" viewBox="0 0 24 24" fill="none" xmlns="http://www.w3.org/2000/svg">
<path d="M9.56066 11.4393C8.97487 10.8536 8.02513 10.8536 7.43934 11.4393C6.85355 12.0251 6.85355 12.9749 7.43934 13.5607L9.56066 11.4393ZM10.5 14.5L9.43934 15.5607C10.0251 16.1464 10.9749 16.1464 11.5607 15.5607L10.5 14.5ZM16.5607 10.5607C17.1464 9.97487 17.1464 9.02513 16.5607 8.43934C15.9749 7.85355 15.0251 7.85355 14.4393 8.43934L16.5607 10.5607ZM20.5 12C20.5 16.6944 16.6944 20.5 12 20.5V23.5C18.3513 23.5 23.5 18.3513 23.5 12H20.5ZM12 20.5C7.30558 20.5 3.5 16.6944 3.5 12H0.5C0.5 18.3513 5.64873 23.5 12 23.5V20.5ZM3.5 12C3.5 7.30558 7.30558 3.5 12 3.5V0.5C5.64873 0.5 0.5 5.64873 0.5 12H3.5ZM12 3.5C16.6944 3.5 20.5 7.30558 20.5 12H23.5C23.5 5.64873 18.3513 0.5 12 0.5V3.5ZM7.43934 13.5607L9.43934 15.5607L11.5607 13.4393L9.56066 11.4393L7.43934 13.5607ZM11.5607 15.5607L16.5607 10.5607L14.4393 8.43934L9.43934 13.4393L11.5607 15.5607Z" fill="#0CE394"/>
</svg>
